<?xml version="1.0" encoding="iso-8859-1"?>
<!-- Generator: Adobe Illustrator 19.0.0, SVG Export Plug-In . SVG Version: 6.00 Build 0)  -->
<svg version="1.1" id="Capa_1" xmlns="http://www.w3.org/2000/svg" xmlns:xlink="http://www.w3.org/1999/xlink" x="0px" y="0px"
	 viewBox="0 0 510.322 510.322" style="enable-background:new 0 0 510.322 510.322;" xml:space="preserve">
<g>
	<g>
		<path style="fill:#010002;" d="M429.064,159.505c0-0.151,0.086-1.057,0.086-1.057c0-75.282-61.261-136.521-136.543-136.521
			c-52.244,0-97.867,30.587-120.753,76.339c-11.67-9.081-25.108-15.682-40.273-15.682c-37.166,0-67.387,30.199-67.387,67.387
			c0,0,0.453,3.279,0.798,5.824C27.05,168.716,0,203.423,0,244.516c0,25.389,9.901,49.268,27.848,67.171
			c17.968,17.99,41.804,27.869,67.193,27.869h130.244v46.83h-54.66l97.694,102.008l95.602-102.008h-54.66v-46.83H419.25
			c50.174,0,91.072-40.855,91.072-90.986C510.3,201.827,474.428,164.639,429.064,159.505z M419.207,312.744H309.26v-55.545h-83.975
			v55.545H95.019c-18.184,0-35.333-7.075-48.211-19.996c-12.878-12.878-19.953-30.005-19.953-48.189
			c0-32.68,23.21-60.808,55.264-66.956l12.511-2.394l-2.092-14.431l-1.488-10.785c0-22.347,18.184-40.51,40.531-40.51
			c13.266,0,25.691,6.514,33.305,17.408l15.229,21.873l8.52-25.303c15.013-44.652,56.796-74.656,103.906-74.656
			c60.506,0,109.709,49.203,109.709,109.644l-1.337,25.712l15.121,0.302l3.149-0.086c35.419,0,64.216,28.797,64.216,64.216
			C483.401,283.969,454.604,312.744,419.207,312.744z"/>
	</g>
	<g>
	</g>
	<g>
	</g>
	<g>
	</g>
	<g>
	</g>
	<g>
	</g>
	<g>
	</g>
	<g>
	</g>
	<g>
	</g>
	<g>
	</g>
	<g>
	</g>
	<g>
	</g>
	<g>
	</g>
	<g>
	</g>
	<g>
	</g>
	<g>
	</g>
</g>
<g>
</g>
<g>
</g>
<g>
</g>
<g>
</g>
<g>
</g>
<g>
</g>
<g>
</g>
<g>
</g>
<g>
</g>
<g>
</g>
<g>
</g>
<g>
</g>
<g>
</g>
<g>
</g>
<g>
</g>
</svg>
