<?xml version="1.0" encoding="iso-8859-1"?>
<!-- Generator: Adobe Illustrator 16.0.0, SVG Export Plug-In . SVG Version: 6.00 Build 0)  -->
<!DOCTYPE svg PUBLIC "-//W3C//DTD SVG 1.1//EN" "http://www.w3.org/Graphics/SVG/1.1/DTD/svg11.dtd">
<svg version="1.1" id="Capa_1" xmlns="http://www.w3.org/2000/svg" xmlns:xlink="http://www.w3.org/1999/xlink" x="0px" y="0px"
	 width="439.685px" height="439.685px" viewBox="0 0 439.685 439.685" style="enable-background:new 0 0 439.685 439.685;"
	 xml:space="preserve">
<g>
	<g>
		<path d="M384.683,165.281c-11.13-70.038-71.789-123.575-144.958-123.575c-66.203,0-122.161,43.827-140.464,104.048
			C42.424,158.683,0,209.523,0,270.275c0,70.528,57.175,127.703,127.704,127.703H311.98c70.528,0,127.704-57.175,127.704-127.703
			C439.686,226.762,417.917,188.339,384.683,165.281z M176.68,209.257l-4.213,16.443c-0.275,1.07-1.003,1.973-1.993,2.464
			c-0.992,0.493-2.147,0.53-3.167,0.104c-4.906-2.059-10.264-3.102-15.924-3.102c-15.912,0-25.412,9.907-25.412,26.5
			c0,16.581,9.312,26.092,25.549,26.092c6.219,0,12.573-1.408,15.845-2.718c1.054-0.42,2.24-0.352,3.238,0.193
			c0.996,0.543,1.698,1.504,1.914,2.617l3.126,16.174c0.323,1.678-0.509,3.364-2.036,4.129c-4.008,2.002-13.017,4.342-25.213,4.342
			c-31.456,0-51.781-19.473-51.781-49.606c0-31.378,21.629-52.461,53.819-52.461c11.517,0,20.11,2.327,24.313,4.504
			C176.318,205.748,177.119,207.541,176.68,209.257z M229.422,302.63c-27.607,0-46.888-20.732-46.888-50.422
			c0-30.488,19.896-51.78,48.384-51.78c28.289,0,47.296,20.154,47.296,50.151C278.214,282.201,259.062,302.63,229.422,302.63z
			 M343.073,322.74c0,2.102-1.704,3.806-3.808,3.806h-46.41c-2.103,0-3.807-1.704-3.807-3.806v-9.265
			c0-1.075,0.455-2.102,1.253-2.821l8.456-7.65c13.558-12.127,20.031-18.964,20.192-25.062c-0.003-3.773-2.279-5.658-6.968-5.658
			c-3.713,0-7.643,1.565-11.681,4.654c-0.948,0.728-2.184,0.959-3.333,0.646c-1.149-0.32-2.083-1.161-2.521-2.273l-4.328-10.975
			c-0.628-1.591-0.116-3.403,1.247-4.435c6.326-4.773,14.979-7.514,23.736-7.514c16.257,0,26.761,9.555,26.761,24.344
			c0,11.914-8.04,21.295-17.126,29.615h14.527c2.104,0,3.807,1.704,3.807,3.807v12.588H343.073z"/>
		<path d="M230.373,224.488c-13.54,0-18.345,14.713-18.345,27.313c0,16.265,7.255,26.772,18.481,26.772
			c13.44,0,18.21-14.715,18.21-27.314C248.72,237.933,243.047,224.488,230.373,224.488z"/>
	</g>
</g>
<g>
</g>
<g>
</g>
<g>
</g>
<g>
</g>
<g>
</g>
<g>
</g>
<g>
</g>
<g>
</g>
<g>
</g>
<g>
</g>
<g>
</g>
<g>
</g>
<g>
</g>
<g>
</g>
<g>
</g>
</svg>
