<?xml version="1.0" encoding="iso-8859-1"?>
<!-- Generator: Adobe Illustrator 18.1.1, SVG Export Plug-In . SVG Version: 6.00 Build 0)  -->
<svg version="1.1" id="Capa_1" xmlns="http://www.w3.org/2000/svg" xmlns:xlink="http://www.w3.org/1999/xlink" x="0px" y="0px"
	 viewBox="0 0 14.078 14.078" style="enable-background:new 0 0 14.078 14.078;" xml:space="preserve">
<g>
	<g>
		<path style="fill:#030104;" d="M10.348,1.244h0.208c0.222,0,0.401-0.18,0.401-0.402s-0.18-0.402-0.401-0.402h-0.208
			c-0.222,0-0.401,0.18-0.401,0.402S10.126,1.244,10.348,1.244z"/>
		<path style="fill:#030104;" d="M6.624,1.244h0.207c0.222,0,0.401-0.18,0.401-0.402S7.052,0.44,6.831,0.44H6.624
			c-0.222,0-0.401,0.18-0.401,0.402S6.403,1.244,6.624,1.244z"/>
		<path style="fill:#030104;" d="M4.763,1.244H4.97c0.223,0,0.402-0.18,0.402-0.402S5.192,0.44,4.97,0.44H4.763
			c-0.222,0-0.402,0.18-0.402,0.402S4.54,1.244,4.763,1.244z"/>
		<path style="fill:#030104;" d="M8.487,1.244h0.207c0.222,0,0.401-0.18,0.401-0.402S8.915,0.44,8.694,0.44H8.487
			c-0.222,0-0.401,0.18-0.401,0.402S8.265,1.244,8.487,1.244z"/>
		<path style="fill:#030104;" d="M12.155,1.646h0.206c0.223,0,0.402-0.18,0.402-0.402s-0.18-0.402-0.402-0.402h-0.206
			c-0.223,0-0.402,0.18-0.402,0.402S11.932,1.646,12.155,1.646z"/>
		<path style="fill:#030104;" d="M2.69,1.244h0.207c0.222,0,0.402-0.18,0.402-0.402S3.119,0.44,2.897,0.44H2.69
			c-0.222,0-0.402,0.18-0.402,0.402S2.468,1.244,2.69,1.244z"/>
		<path style="fill:#030104;" d="M8.754,2.504c0,0.222,0.18,0.402,0.402,0.402h0.206c0.223,0,0.402-0.18,0.402-0.402
			s-0.18-0.402-0.402-0.402H9.157C8.934,2.102,8.754,2.282,8.754,2.504z"/>
		<path style="fill:#030104;" d="M1.708,2.906h0.207c0.222,0,0.402-0.18,0.402-0.402s-0.18-0.402-0.402-0.402H1.708
			c-0.222,0-0.402,0.18-0.402,0.402S1.486,2.906,1.708,2.906z"/>
		<path style="fill:#030104;" d="M10.616,2.504c0,0.222,0.18,0.402,0.402,0.402h0.207c0.223,0,0.402-0.18,0.402-0.402
			s-0.18-0.402-0.402-0.402h-0.207C10.795,2.102,10.616,2.282,10.616,2.504z"/>
		<path style="fill:#030104;" d="M5.031,2.504c0,0.222,0.18,0.402,0.401,0.402h0.207c0.222,0,0.401-0.18,0.401-0.402
			S5.86,2.102,5.639,2.102H5.432C5.21,2.102,5.031,2.282,5.031,2.504z"/>
		<path style="fill:#030104;" d="M6.892,2.504c0,0.222,0.18,0.402,0.402,0.402h0.207c0.222,0,0.401-0.18,0.401-0.402
			s-0.18-0.402-0.401-0.402H7.294C7.072,2.102,6.892,2.282,6.892,2.504z"/>
		<path style="fill:#030104;" d="M3.168,2.504c0,0.222,0.18,0.402,0.401,0.402h0.208c0.222,0,0.402-0.18,0.402-0.402
			s-0.18-0.402-0.402-0.402H3.569C3.348,2.102,3.168,2.282,3.168,2.504z"/>
		<path style="fill:#030104;" d="M12.478,2.504c0,0.222,0.18,0.402,0.402,0.402h0.206c0.223,0,0.402-0.18,0.402-0.402
			s-0.18-0.402-0.402-0.402H12.88C12.658,2.102,12.478,2.282,12.478,2.504z"/>
		<path style="fill:#030104;" d="M4.768,4.312c0-0.222-0.18-0.402-0.402-0.402H4.159c-0.222,0-0.402,0.18-0.402,0.402
			s0.18,0.402,0.402,0.402h0.207C4.589,4.714,4.768,4.534,4.768,4.312z"/>
		<path style="fill:#030104;" d="M6.022,4.714h0.207c0.222,0,0.401-0.18,0.401-0.402S6.45,3.91,6.229,3.91H6.022
			C5.8,3.91,5.62,4.09,5.62,4.312S5.8,4.714,6.022,4.714z"/>
		<path style="fill:#030104;" d="M9.745,4.714h0.207c0.223,0,0.402-0.18,0.402-0.402S10.174,3.91,9.952,3.91H9.745
			c-0.222,0-0.401,0.18-0.401,0.402S9.524,4.714,9.745,4.714z"/>
		<path style="fill:#030104;" d="M7.884,4.714h0.207c0.222,0,0.401-0.18,0.401-0.402S8.312,3.91,8.091,3.91H7.884
			c-0.223,0-0.402,0.18-0.402,0.402S7.661,4.714,7.884,4.714z"/>
		<path style="fill:#030104;" d="M13.068,4.312c0,0.222,0.18,0.402,0.402,0.402h0.206c0.223,0,0.402-0.18,0.402-0.402
			s-0.18-0.402-0.402-0.402H13.47C13.247,3.91,13.068,4.09,13.068,4.312z"/>
		<path style="fill:#030104;" d="M11.608,4.714h0.207c0.222,0,0.401-0.18,0.401-0.402s-0.18-0.402-0.401-0.402h-0.207
			c-0.223,0-0.402,0.18-0.402,0.402S11.385,4.714,11.608,4.714z"/>
		<path style="fill:#030104;" d="M2.907,4.312c0-0.222-0.18-0.402-0.402-0.402H2.298c-0.222,0-0.402,0.18-0.402,0.402
			s0.18,0.402,0.402,0.402h0.207C2.727,4.714,2.907,4.534,2.907,4.312z"/>
		<path style="fill:#030104;" d="M0.436,4.714h0.207c0.222,0,0.402-0.18,0.402-0.402S0.865,3.91,0.643,3.91H0.436
			c-0.222,0-0.402,0.18-0.402,0.402S0.214,4.714,0.436,4.714z"/>
		<path style="fill:#030104;" d="M1.647,6.053c0-0.222-0.18-0.401-0.402-0.401H1.039c-0.222,0-0.402,0.18-0.402,0.401
			c0,0.223,0.18,0.402,0.402,0.402h0.207C1.468,6.455,1.647,6.276,1.647,6.053z"/>
		<path style="fill:#030104;" d="M12.417,6.455c0.222,0,0.401-0.18,0.401-0.402s-0.18-0.401-0.401-0.401H12.21
			c-0.222,0-0.401,0.18-0.401,0.401c0,0.223,0.18,0.402,0.401,0.402H12.417z"/>
		<path style="fill:#030104;" d="M8.694,6.455c0.222,0,0.401-0.18,0.401-0.402s-0.18-0.401-0.401-0.401H8.487
			c-0.222,0-0.401,0.18-0.401,0.401c0,0.223,0.18,0.402,0.401,0.402H8.694z"/>
		<path style="fill:#030104;" d="M6.831,6.455c0.222,0,0.401-0.18,0.401-0.402s-0.18-0.401-0.401-0.401H6.624
			c-0.222,0-0.401,0.18-0.401,0.401c0,0.223,0.18,0.402,0.401,0.402H6.831z"/>
		<path style="fill:#030104;" d="M4.763,6.455H4.97c0.223,0,0.402-0.18,0.402-0.402S5.192,5.652,4.97,5.652H4.763
			c-0.222,0-0.402,0.18-0.402,0.401C4.361,6.276,4.54,6.455,4.763,6.455z"/>
		<path style="fill:#030104;" d="M10.556,6.455c0.222,0,0.401-0.18,0.401-0.402s-0.18-0.401-0.401-0.401h-0.208
			c-0.222,0-0.401,0.18-0.401,0.401c0,0.223,0.18,0.402,0.401,0.402H10.556z"/>
		<path style="fill:#030104;" d="M2.9,6.455h0.208c0.222,0,0.402-0.18,0.402-0.402S3.33,5.652,3.108,5.652H2.9
			c-0.222,0-0.402,0.18-0.402,0.401C2.498,6.276,2.678,6.455,2.9,6.455z"/>
		<path style="fill:#030104;" d="M9.157,8.33h0.206c0.223,0,0.402-0.18,0.402-0.401c0-0.223-0.18-0.402-0.402-0.402H9.157
			c-0.223,0-0.402,0.18-0.402,0.402C8.754,8.151,8.934,8.33,9.157,8.33z"/>
		<path style="fill:#030104;" d="M4.179,7.929c0-0.223-0.18-0.402-0.402-0.402H3.569c-0.222,0-0.401,0.18-0.401,0.402
			c0,0.222,0.18,0.401,0.401,0.401h0.208C3.999,8.33,4.179,8.151,4.179,7.929z"/>
		<path style="fill:#030104;" d="M11.018,8.33h0.207c0.223,0,0.402-0.18,0.402-0.401c0-0.223-0.18-0.402-0.402-0.402h-0.207
			c-0.223,0-0.402,0.18-0.402,0.402C10.616,8.151,10.795,8.33,11.018,8.33z"/>
		<path style="fill:#030104;" d="M7.294,8.33h0.207c0.222,0,0.401-0.18,0.401-0.401c0-0.223-0.18-0.402-0.401-0.402H7.294
			c-0.223,0-0.402,0.18-0.402,0.402C6.892,8.151,7.072,8.33,7.294,8.33z"/>
		<path style="fill:#030104;" d="M5.432,8.33h0.207c0.222,0,0.401-0.18,0.401-0.401c0-0.223-0.18-0.402-0.401-0.402H5.432
			c-0.222,0-0.401,0.18-0.401,0.402C5.031,8.151,5.21,8.33,5.432,8.33z"/>
		<path style="fill:#030104;" d="M2.317,7.929c0-0.223-0.18-0.402-0.402-0.402H1.708c-0.222,0-0.402,0.18-0.402,0.402
			c0,0.222,0.18,0.401,0.402,0.401h0.207C2.137,8.33,2.317,8.151,2.317,7.929z"/>
		<path style="fill:#030104;" d="M13.489,7.929c0-0.223-0.18-0.402-0.402-0.402h-0.206c-0.223,0-0.402,0.18-0.402,0.402
			c0,0.222,0.18,0.401,0.402,0.401h0.206C13.309,8.33,13.489,8.151,13.489,7.929z"/>
		<path style="fill:#030104;" d="M9.712,10.022h0.207c0.222,0,0.401-0.18,0.401-0.401c0-0.223-0.18-0.402-0.401-0.402H9.712
			c-0.223,0-0.402,0.18-0.402,0.402C9.31,9.842,9.49,10.022,9.712,10.022z"/>
		<path style="fill:#030104;" d="M7.85,10.022h0.207c0.222,0,0.402-0.18,0.402-0.401c0-0.223-0.181-0.402-0.402-0.402H7.85
			c-0.222,0-0.401,0.18-0.401,0.402C7.449,9.842,7.628,10.022,7.85,10.022z"/>
		<path style="fill:#030104;" d="M11.574,10.022h0.207c0.223,0,0.402-0.18,0.402-0.401c0-0.223-0.18-0.402-0.402-0.402h-0.207
			c-0.222,0-0.401,0.18-0.401,0.402C11.172,9.842,11.352,10.022,11.574,10.022z"/>
		<path style="fill:#030104;" d="M13.643,9.218h-0.207c-0.222,0-0.401,0.18-0.401,0.402s0.18,0.401,0.401,0.401h0.207
			c0.222,0,0.401-0.18,0.401-0.401C14.044,9.398,13.865,9.218,13.643,9.218z"/>
		<path style="fill:#030104;" d="M2.873,9.621c0-0.223-0.18-0.402-0.402-0.402H2.264c-0.222,0-0.402,0.18-0.402,0.402
			s0.18,0.401,0.402,0.401h0.207C2.693,10.022,2.873,9.842,2.873,9.621z"/>
		<path style="fill:#030104;" d="M5.988,10.022h0.207c0.223,0,0.402-0.18,0.402-0.401c0-0.223-0.18-0.402-0.402-0.402H5.988
			c-0.222,0-0.401,0.18-0.401,0.402C5.586,9.842,5.766,10.022,5.988,10.022z"/>
		<path style="fill:#030104;" d="M0.609,9.218H0.402C0.18,9.218,0,9.398,0,9.62s0.18,0.401,0.402,0.401h0.207
			c0.222,0,0.402-0.18,0.402-0.401C1.011,9.398,0.831,9.218,0.609,9.218z"/>
		<path style="fill:#030104;" d="M4.735,9.621c0-0.223-0.18-0.402-0.402-0.402H4.126c-0.222,0-0.402,0.18-0.402,0.402
			s0.18,0.401,0.402,0.401h0.207C4.555,10.022,4.735,9.842,4.735,9.621z"/>
		<path style="fill:#030104;" d="M12.383,10.959h-0.206c-0.223,0-0.402,0.18-0.402,0.402s0.18,0.401,0.402,0.401h0.206
			c0.223,0,0.402-0.18,0.402-0.401C12.786,11.139,12.606,10.959,12.383,10.959z"/>
		<path style="fill:#030104;" d="M7.2,11.362c0-0.223-0.18-0.402-0.402-0.402H6.592c-0.223,0-0.402,0.18-0.402,0.402
			s0.18,0.401,0.402,0.401h0.206C7.02,11.763,7.2,11.583,7.2,11.362z"/>
		<path style="fill:#030104;" d="M3.074,10.959H2.867c-0.222,0-0.402,0.18-0.402,0.402s0.18,0.401,0.402,0.401h0.208
			c0.222,0,0.402-0.18,0.402-0.401C3.476,11.139,3.296,10.959,3.074,10.959z"/>
		<path style="fill:#030104;" d="M10.924,11.362c0-0.223-0.181-0.402-0.402-0.402h-0.207c-0.223,0-0.402,0.18-0.402,0.402
			s0.18,0.401,0.402,0.401h0.207C10.744,11.763,10.924,11.583,10.924,11.362z"/>
		<path style="fill:#030104;" d="M9.062,11.362c0-0.223-0.18-0.402-0.402-0.402H8.453c-0.222,0-0.401,0.18-0.401,0.402
			s0.18,0.401,0.401,0.401H8.66C8.882,11.763,9.062,11.583,9.062,11.362z"/>
		<path style="fill:#030104;" d="M5.337,11.362c0-0.223-0.18-0.402-0.401-0.402H4.729c-0.222,0-0.402,0.18-0.402,0.402
			s0.18,0.401,0.402,0.401h0.207C5.158,11.763,5.337,11.583,5.337,11.362z"/>
		<path style="fill:#030104;" d="M7.467,12.834H7.26c-0.222,0-0.401,0.181-0.401,0.402s0.18,0.402,0.401,0.402h0.207
			c0.222,0,0.402-0.181,0.402-0.402S7.689,12.834,7.467,12.834z"/>
		<path style="fill:#030104;" d="M11.192,12.834h-0.208c-0.222,0-0.401,0.181-0.401,0.402s0.18,0.402,0.401,0.402h0.208
			c0.222,0,0.401-0.181,0.401-0.402S11.413,12.834,11.192,12.834z"/>
		<path style="fill:#030104;" d="M9.329,12.834H9.122c-0.222,0-0.401,0.181-0.401,0.402s0.18,0.402,0.401,0.402h0.207
			c0.222,0,0.401-0.181,0.401-0.402S9.551,12.834,9.329,12.834z"/>
		<path style="fill:#030104;" d="M5.605,12.834H5.398c-0.222,0-0.401,0.181-0.401,0.402s0.18,0.402,0.401,0.402h0.207
			c0.223,0,0.402-0.181,0.402-0.402S5.828,12.834,5.605,12.834z"/>
	</g>
</g>
<g>
</g>
<g>
</g>
<g>
</g>
<g>
</g>
<g>
</g>
<g>
</g>
<g>
</g>
<g>
</g>
<g>
</g>
<g>
</g>
<g>
</g>
<g>
</g>
<g>
</g>
<g>
</g>
<g>
</g>
</svg>
