<?xml version="1.0"?>
<svg xmlns="http://www.w3.org/2000/svg" viewBox="0 0 16 16">
    <path style="line-height:normal;text-indent:0;text-align:start;text-decoration-line:none;text-decoration-style:solid;text-decoration-color:#000;text-transform:none;block-progression:tb;isolation:auto;mix-blend-mode:normal" d="M 7.5 1 C 3.915833 1 1 3.915833 1 7.5 C 1 11.084167 3.915833 14 7.5 14 A 0.50005 0.50005 0 0 0 7.6054688 13.990234 C 7.9120337 13.98386 8.2151457 13.958675 8.5097656 13.912109 C 8.3457656 13.614109 8.2148594 13.298938 8.1308594 12.960938 C 7.9238594 12.984937 7.713 13 7.5 13 C 4.456167 13 2 10.543833 2 7.5 C 2 4.456167 4.456167 2 7.5 2 C 10.066441 2 12.21454 3.754133 12.826172 6.1230469 A 0.50024408 0.50024408 0 0 0 12.826172 6.125 C 12.857554 6.2468436 12.875669 6.3723492 12.898438 6.4960938 L 13.130859 6.7636719 C 13.320859 6.9816719 13.635375 7.3584531 13.984375 7.8144531 C 13.988375 7.7094531 14 7.606 14 7.5 C 14 6.9746273 13.932769 6.4501835 13.808594 5.9433594 A 0.50024408 0.50024408 0 0 0 13.794922 5.8730469 C 13.071929 3.0688756 10.522907 1 7.5 1 z M 7.5 3 C 5.020742 3 3 5.020742 3 7.5 A 0.50005 0.50005 0 1 0 4 7.5 C 4 5.561258 5.561258 4 7.5 4 C 7.912 4 8.3068281 4.072125 8.6738281 4.203125 L 9.4355469 3.4433594 C 8.868488 3.1704744 8.2355043 3.0139373 7.5664062 3.0039062 A 0.50005 0.50005 0 0 0 7.5 3 z M 10.490234 3.9960938 A 0.50005 0.50005 0 0 0 10.146484 4.1464844 L 7.1464844 7.1464844 A 0.50005 0.50005 0 1 0 7.8535156 7.8535156 L 10.853516 4.8535156 A 0.50005 0.50005 0 0 0 10.490234 3.9960938 z M 12 6.9882812 L 11.623047 7.421875 C 11.623047 7.421875 10.984277 8.1555496 10.341797 9.0703125 C 10.020557 9.527694 9.6966358 10.030679 9.4453125 10.527344 C 9.1939892 11.024009 9 11.503893 9 12 C 9 13.651094 10.348906 15 12 15 C 13.651094 15 15 13.651094 15 12 C 15 11.503893 14.80601 11.024009 14.554688 10.527344 C 14.303363 10.030679 13.979443 9.527694 13.658203 9.0703125 C 13.015723 8.1555496 12.376953 7.421875 12.376953 7.421875 L 12 6.9882812 z M 12 8.5625 C 12.220232 8.826523 12.422154 9.0470437 12.841797 9.6445312 C 13.145557 10.077025 13.446637 10.548837 13.664062 10.978516 C 13.88149 11.408194 14 11.805607 14 12 C 14 13.110906 13.110906 14 12 14 C 10.889094 14 10 13.110906 10 12 C 10 11.805607 10.11851 11.408194 10.335938 10.978516 C 10.553363 10.548837 10.854443 10.077025 11.158203 9.6445312 C 11.577846 9.0470437 11.779768 8.826523 12 8.5625 z" font-weight="400" font-family="sans-serif" white-space="normal" overflow="visible"/>
</svg>
