<?xml version="1.0" encoding="utf-8"?>
<!-- Svg Vector Icons : http://www.onlinewebfonts.com/icon -->
<!DOCTYPE svg PUBLIC "-//W3C//DTD SVG 1.1//EN" "http://www.w3.org/Graphics/SVG/1.1/DTD/svg11.dtd">
<svg version="1.1" xmlns="http://www.w3.org/2000/svg" xmlns:xlink="http://www.w3.org/1999/xlink" x="0px" y="0px" viewBox="0 0 1000 1000" enable-background="new 0 0 1000 1000" xml:space="preserve">
<metadata> Svg Vector Icons : http://www.onlinewebfonts.com/icon </metadata>
<g><path d="M462.5,42.9c20.6-43.8,54.4-43.8,75,0L627,232.4c20.6,43.8,76.8,85.6,124.8,92.9l193.1,29.4c48,7.3,59.6,41.6,25.6,76.2L827.8,576.4c-33.9,34.6-55.3,102-47.5,149.7l34.4,209.8c7.8,47.7-20.5,67.5-63.1,44.2l-174.3-95.9c-42.5-23.4-112.1-23.4-154.6,0l-174.3,95.9c-42.5,23.3-70.9,3.5-63.1-44.2l34.4-209.8c7.8-47.7-13.5-115-47.5-149.7L29.5,430.9c-34-34.6-22.4-69,25.6-76.2l193.1-29.4c48-7.3,104.2-49.1,124.9-92.9L462.5,42.9L462.5,42.9z"/></g>
</svg>