<svg xmlns="http://www.w3.org/2000/svg" xmlns:xlink="http://www.w3.org/1999/xlink" version="1.1" x="0px" y="0px" viewBox="0 0 100 125" enable-background="new 0 0 100 100" xml:space="preserve"><g><path d="M60.6,64.4V15.1c0-5.7-4.6-10.3-10.3-10.3h-0.2c-5.7,0-10.3,4.6-10.3,10.3v49.2c-4.2,3.2-6.6,8.2-6.6,13.4   c0,9.4,7.6,17,17,17s17-7.6,17-17C67.2,72.6,64.8,67.6,60.6,64.4z M50.2,91.7c-7.6,0-13.8-6.2-13.8-13.8c0-4.5,2.2-8.8,5.9-11.3   L43,66V40.5h4.1v-3.2H43v-8.4h4.1v-3.2H43V15.1c0-3.9,3.2-7.1,7.1-7.1h0.2c3.9,0,7.1,3.2,7.1,7.1V66l0.7,0.5   c3.7,2.6,5.9,6.8,5.9,11.3C64.1,85.4,57.8,91.7,50.2,91.7z"/><path d="M56.3,69.1l-2-1.4v-2.5V47.7l-8.1,0v17.5v2.5l-2,1.4c-2.9,2-4.6,5.3-4.6,8.7c0,5.9,4.8,10.7,10.7,10.7   c5.9,0,10.7-4.8,10.7-10.7C60.9,74.3,59.2,71.1,56.3,69.1z"/></g><text x="0" y="115" fill="#000000" font-size="5px" font-weight="bold" font-family="'Helvetica Neue', Helvetica, Arial-Unicode, Arial, Sans-serif">Created by MarkieAnn Packer</text><text x="0" y="120" fill="#000000" font-size="5px" font-weight="bold" font-family="'Helvetica Neue', Helvetica, Arial-Unicode, Arial, Sans-serif">from the Noun Project</text></svg>