<?xml version="1.0" encoding="utf-8"?>
<!-- Svg Vector Icons : http://www.onlinewebfonts.com/icon -->
<!DOCTYPE svg PUBLIC "-//W3C//DTD SVG 1.1//EN" "http://www.w3.org/Graphics/SVG/1.1/DTD/svg11.dtd">
<svg version="1.1" xmlns="http://www.w3.org/2000/svg" xmlns:xlink="http://www.w3.org/1999/xlink" x="0px" y="0px" viewBox="0 0 1000 1000" enable-background="new 0 0 1000 1000" xml:space="preserve">
<metadata> Svg Vector Icons : http://www.onlinewebfonts.com/icon </metadata>
<g><path d="M653.1,683.8c-50.7,0-91.9,41.2-91.9,91.9s41.2,91.9,91.9,91.9c50.7,0,91.9-41.2,91.9-91.9S703.8,683.8,653.1,683.8z M653.1,836.9c-33.8,0-61.2-27.5-61.2-61.2s27.5-61.3,61.2-61.3c33.8,0,61.3,27.5,61.3,61.3S686.9,836.9,653.1,836.9z"/><path d="M976.7,827.5l0.8-1.5L683.8,315.7V71.2h20.5c22.5,0,40.8-13.7,40.8-30.6c0-16.9-18.3-30.6-40.8-30.6h-66.4H362.2h-66.4C273.3,10,255,23.7,255,40.6c0,16.9,18.3,30.6,40.8,30.6h20.5v245.1l-289,502.7l0.5,1c-10.3,17.3-17.8,37-17.8,59.3C10,940.6,54.8,990,110,990c2.5,0,790.5,0,790.5,0c50-6,89.5-53.6,89.5-110.6C990,860.3,984.5,843.1,976.7,827.5z M622.5,71.2v244.5c0,10.7,2.8,21.3,8.2,30.6l53.2,92.5H316.5l52.8-91.9c5.3-9.3,8.1-19.8,8.1-30.5l0-245.1H622.5z M895.8,928.8H110c-21,0-38.8-22.6-38.8-49.3c0-8.6,2.9-17.5,9.2-28c2-3.4,3.6-6.8,4.8-10.4l196-341h437.8l199.2,346c1,3,2.2,6,3.6,8.8c4.7,9.5,6.8,17.2,6.8,24.6C928.8,906.1,912.1,925.2,895.8,928.8z"/><path d="M438.8,561.3c-33.9,0-61.2,27.4-61.2,61.3s27.4,61.3,61.2,61.3c33.9,0,61.3-27.4,61.3-61.3C500,588.6,472.6,561.3,438.8,561.3z M438.8,653.1c-16.9,0-30.6-13.8-30.6-30.6c0-16.9,13.7-30.6,30.6-30.6s30.6,13.8,30.6,30.6C469.4,639.4,455.6,653.1,438.8,653.1z"/></g>
</svg>