<svg id="Icon1" xmlns="http://www.w3.org/2000/svg" viewBox="0 0 70 70"><defs><style>.cls-1{fill:none;stroke:#373737;stroke-miterlimit:10;}.cls-2{fill:#373737;}</style></defs><title>icons_final_diverse</title><g id="estia"><path class="cls-1" d="M56.29,38.39,35,20.84,13.71,38.39a.28.28,0,0,1,0,.11.89.89,0,0,0,0,.11V56.38A2.29,2.29,0,0,0,14.38,58a2.26,2.26,0,0,0,1.66.7H54a2.26,2.26,0,0,0,1.66-.7,2.29,2.29,0,0,0,.71-1.67V38.61A.57.57,0,0,0,56.29,38.39Z"/><path class="cls-2" d="M40.06,38.21a7.11,7.11,0,0,0-12.15,5A7.08,7.08,0,0,0,35,50.31h0a7.13,7.13,0,0,0,7.09-7.09A7,7,0,0,0,40.06,38.21ZM35,49.14h0a5.87,5.87,0,0,1-4.21-1.77,5.8,5.8,0,0,1-1.69-4.18A5.94,5.94,0,0,1,39.23,39a5.84,5.84,0,0,1,1.71,4.19A6,6,0,0,1,35,49.14Z"/><rect class="cls-2" x="34.88" y="50.99" width="1.17" height="3.99"/><polygon class="cls-2" points="32.05 50.39 30.1 53.9 29.08 53.34 31.03 49.83 32.05 50.39"/><path class="cls-2" d="M28.63,47.52l-3.4,2.13-.61-1L28,46.53Z"/><rect class="cls-2" x="23.21" y="42.83" width="3.98" height="1.17"/><polygon class="cls-2" points="28.51 38.89 27.94 39.91 24.44 37.96 25 36.94 28.51 38.89"/><polygon class="cls-2" points="31.56 36.24 30.57 36.86 28.44 33.46 29.43 32.85 31.56 36.24"/><rect class="cls-2" x="33.91" y="31.46" width="1.17" height="4"/><polygon class="cls-2" points="40.77 32.99 38.83 36.49 37.81 35.93 39.75 32.42 40.77 32.99"/><polygon class="cls-2" points="45.16 37.32 41.69 39.33 41.11 38.32 44.58 36.31 45.16 37.32"/><rect class="cls-2" x="42.8" y="41.88" width="3.99" height="1.17"/><path class="cls-2" d="M45.86,47.8l-.57,1-.46-.25-3-1.7.57-1,3.05,1.69Z"/><polygon class="cls-2" points="41.9 52.75 40.89 53.34 38.88 49.86 39.89 49.28 41.9 52.75"/><path class="cls-1" d="M64.43,34.39l-8.11-6.74V12.54a1.14,1.14,0,0,0-1.18-1.18H48a1.14,1.14,0,0,0-1.18,1.18v7.22l-9-7.55a4.6,4.6,0,0,0-5.63,0L5.57,34.39a1.07,1.07,0,0,0-.41.8,1.2,1.2,0,0,0,.26.87l2.3,2.74a1.26,1.26,0,0,0,.78.41,1.37,1.37,0,0,0,.89-.26L35,17.58,60.62,38.94a1.13,1.13,0,0,0,.78.26h.11a1.26,1.26,0,0,0,.78-.41l2.3-2.74a1.2,1.2,0,0,0,.26-.87A1.07,1.07,0,0,0,64.43,34.39Z"/></g></svg>